<svg xmlns="http://www.w3.org/2000/svg" xmlns:xlink="http://www.w3.org/1999/xlink" width="64" height="64" x="0" y="0" viewBox="0 0 64 64"><g transform="translate(0, 0)"><circle cx="36" cy="10" r="6" fill="none" stroke="#06c" stroke-linecap="square" stroke-linejoin="miter" stroke-miterlimit="10" stroke-width="2" data-color="color-2"/><line x1="30" x2="42" y1="28" y2="28" fill="none" stroke="#06c" stroke-linecap="square" stroke-linejoin="miter" stroke-miterlimit="10" stroke-width="2" data-color="color-2"/><path fill="none" stroke="#343434" stroke-linecap="butt" stroke-linejoin="miter" stroke-miterlimit="10" stroke-width="2" d="M57.7,39.6c2.6-0.4,4.3-2.3,4.3-5.4	c0-3.5-2.7-4.1-2.7-4.1" data-cap="butt"/><circle cx="19" cy="35" r="3" fill="none" stroke="#343434" stroke-linecap="square" stroke-linejoin="miter" stroke-miterlimit="10" stroke-width="2"/><path fill="none" stroke="#343434" stroke-linecap="square" stroke-linejoin="miter" stroke-miterlimit="10" stroke-width="2" d="M38,56v6h10v-7.5	c5.9-2.7,10-8.6,10-15.5c0-9.4-7.6-17-17-17H25c-4.8-8.5-13-6-13-6l3.1,9.2c-3,2.1-5.2,5.2-6.3,8.8H2v14h8.6	c1.8,2.8,4.3,5.1,7.4,6.5V62h10v-6"/><line x1="26" x2="40" y1="56" y2="56" fill="none" stroke="#343434" stroke-linecap="square" stroke-linejoin="miter" stroke-miterlimit="10" stroke-width="2"/></g></svg>