<svg xmlns="http://www.w3.org/2000/svg" xmlns:xlink="http://www.w3.org/1999/xlink" width="24" height="24" x="0" y="0" viewBox="0 0 24 24"><g transform="translate(0, 0)"><path fill="none" stroke="#06c" stroke-linecap="butt" stroke-linejoin="miter" stroke-miterlimit="10" stroke-width="2" d="M19,20.5v-0.7c0-1.1-0.6-2.1-1.5-2.6	l-3.2-1.9" data-cap="butt" data-color="color-2"/><path fill="none" stroke="#06c" stroke-linecap="butt" stroke-linejoin="miter" stroke-miterlimit="10" stroke-width="2" d="M9.7,15.3l-3.2,1.8	C5.6,17.7,5,18.7,5,19.7v0.7" data-cap="butt" data-color="color-2"/><path fill="none" stroke="#06c" stroke-linecap="square" stroke-linejoin="miter" stroke-miterlimit="10" stroke-width="2" d="M12,16L12,16	c-2.2,0-4-1.8-4-4v-2c0-2.2,1.8-4,4-4h0c2.2,0,4,1.8,4,4v2C16,14.2,14.2,16,12,16z" data-color="color-2"/><circle cx="12" cy="12" r="11" fill="none" stroke="#343434" stroke-linecap="square" stroke-linejoin="miter" stroke-miterlimit="10" stroke-width="2"/></g></svg>